<mxfile host="Electron" agent="Mozilla/5.0 (Windows NT 10.0; Win64; x64) AppleWebKit/537.36 (KHTML, like Gecko) draw.io/28.2.5 Chrome/138.0.7204.251 Electron/37.6.1 Safari/537.36" version="28.2.5">
  <diagram name="Page-1" id="5Mup3d0FfSBeE7exCx4X">
    <mxGraphModel dx="1426" dy="849" grid="1" gridSize="10" guides="1" tooltips="1" connect="1" arrows="1" fold="1" page="0" pageScale="1" pageWidth="850" pageHeight="1100" math="0" shadow="0">
      <root>
        <mxCell id="0" />
        <mxCell id="1" parent="0" />
        <mxCell id="LMTuQz9KJbjj-_pU4_c0-2" value="" style="rounded=0;whiteSpace=wrap;html=1;dashed=1;" vertex="1" parent="1">
          <mxGeometry x="41" y="200" width="120" height="620" as="geometry" />
        </mxCell>
        <mxCell id="LMTuQz9KJbjj-_pU4_c0-3" value="Sources" style="rounded=0;whiteSpace=wrap;html=1;strokeColor=none;" vertex="1" parent="1">
          <mxGeometry x="66" y="180" width="70" height="40" as="geometry" />
        </mxCell>
        <mxCell id="LMTuQz9KJbjj-_pU4_c0-4" value="" style="rounded=0;whiteSpace=wrap;html=1;dashed=1;" vertex="1" parent="1">
          <mxGeometry x="240" y="200" width="650" height="620" as="geometry" />
        </mxCell>
        <mxCell id="LMTuQz9KJbjj-_pU4_c0-5" value="Data Warehouse" style="rounded=0;whiteSpace=wrap;html=1;strokeColor=none;" vertex="1" parent="1">
          <mxGeometry x="520" y="180" width="70" height="40" as="geometry" />
        </mxCell>
        <mxCell id="LMTuQz9KJbjj-_pU4_c0-6" value="" style="rounded=0;whiteSpace=wrap;html=1;dashed=1;" vertex="1" parent="1">
          <mxGeometry x="959.9" y="200" width="140" height="620" as="geometry" />
        </mxCell>
        <mxCell id="LMTuQz9KJbjj-_pU4_c0-7" value="Consume" style="rounded=0;whiteSpace=wrap;html=1;strokeColor=none;" vertex="1" parent="1">
          <mxGeometry x="1000" y="180" width="70" height="40" as="geometry" />
        </mxCell>
        <mxCell id="LMTuQz9KJbjj-_pU4_c0-8" value="High Level Architecture" style="rounded=1;whiteSpace=wrap;html=1;fillColor=#60a917;fontColor=#ffffff;strokeColor=#2D7600;fontStyle=1;fontSize=24;" vertex="1" parent="1">
          <mxGeometry x="41" y="130" width="1059" height="40" as="geometry" />
        </mxCell>
        <mxCell id="LMTuQz9KJbjj-_pU4_c0-11" value="Bronze Layer" style="rounded=0;whiteSpace=wrap;html=1;fillStyle=solid;fillColor=#f0a30a;fontColor=#000000;strokeColor=#BD7000;" vertex="1" parent="1">
          <mxGeometry x="260" y="240" width="170" height="40" as="geometry" />
        </mxCell>
        <mxCell id="LMTuQz9KJbjj-_pU4_c0-12" value="" style="rounded=0;whiteSpace=wrap;html=1;strokeColor=#FF9933;" vertex="1" parent="1">
          <mxGeometry x="260" y="290" width="170" height="520" as="geometry" />
        </mxCell>
        <mxCell id="LMTuQz9KJbjj-_pU4_c0-15" value="Silver Layer" style="rounded=0;whiteSpace=wrap;html=1;fillStyle=solid;fillColor=#E6E6E6;fontColor=#000000;strokeColor=#BD7000;" vertex="1" parent="1">
          <mxGeometry x="480" y="240" width="170" height="40" as="geometry" />
        </mxCell>
        <mxCell id="LMTuQz9KJbjj-_pU4_c0-16" value="" style="rounded=0;whiteSpace=wrap;html=1;strokeColor=#E6E6E6;" vertex="1" parent="1">
          <mxGeometry x="480" y="290" width="170" height="520" as="geometry" />
        </mxCell>
        <mxCell id="LMTuQz9KJbjj-_pU4_c0-17" value="Gold Layer" style="rounded=0;whiteSpace=wrap;html=1;fillStyle=solid;fillColor=#FFD966;fontColor=#000000;strokeColor=#BD7000;gradientColor=default;" vertex="1" parent="1">
          <mxGeometry x="700" y="240" width="170" height="40" as="geometry" />
        </mxCell>
        <mxCell id="LMTuQz9KJbjj-_pU4_c0-18" value="" style="rounded=0;whiteSpace=wrap;html=1;strokeColor=#FFF4C3;" vertex="1" parent="1">
          <mxGeometry x="700" y="290" width="170" height="520" as="geometry" />
        </mxCell>
        <mxCell id="LMTuQz9KJbjj-_pU4_c0-19" value="" style="image;aspect=fixed;html=1;points=[];align=center;fontSize=12;image=img/lib/azure2/general/Folder_Blank.svg;" vertex="1" parent="1">
          <mxGeometry x="71" y="285" width="56.61" height="45.94" as="geometry" />
        </mxCell>
        <mxCell id="LMTuQz9KJbjj-_pU4_c0-22" value="" style="image;aspect=fixed;html=1;points=[];align=center;fontSize=12;image=img/lib/azure2/general/Files.svg;" vertex="1" parent="1">
          <mxGeometry x="91" y="310" width="27.43" height="30" as="geometry" />
        </mxCell>
        <mxCell id="LMTuQz9KJbjj-_pU4_c0-25" value="CRM" style="rounded=0;whiteSpace=wrap;html=1;strokeColor=none;" vertex="1" parent="1">
          <mxGeometry x="64.31" y="340" width="70" height="20" as="geometry" />
        </mxCell>
        <mxCell id="LMTuQz9KJbjj-_pU4_c0-28" value="" style="image;aspect=fixed;html=1;points=[];align=center;fontSize=12;image=img/lib/azure2/general/Folder_Blank.svg;" vertex="1" parent="1">
          <mxGeometry x="78" y="419" width="56.61" height="45.94" as="geometry" />
        </mxCell>
        <mxCell id="LMTuQz9KJbjj-_pU4_c0-29" value="" style="image;aspect=fixed;html=1;points=[];align=center;fontSize=12;image=img/lib/azure2/general/Files.svg;" vertex="1" parent="1">
          <mxGeometry x="98" y="444" width="27.43" height="30" as="geometry" />
        </mxCell>
        <mxCell id="LMTuQz9KJbjj-_pU4_c0-30" value="ERP" style="rounded=0;whiteSpace=wrap;html=1;strokeColor=none;" vertex="1" parent="1">
          <mxGeometry x="64.31" y="474" width="70" height="20" as="geometry" />
        </mxCell>
        <mxCell id="LMTuQz9KJbjj-_pU4_c0-35" value="Object Type : CSV Files&lt;div&gt;Interface: Files in Folder&lt;/div&gt;" style="text;html=1;align=center;verticalAlign=middle;whiteSpace=wrap;rounded=0;" vertex="1" parent="1">
          <mxGeometry x="58.5" y="590" width="85" height="30" as="geometry" />
        </mxCell>
        <mxCell id="LMTuQz9KJbjj-_pU4_c0-37" value="" style="strokeWidth=2;html=1;shape=mxgraph.flowchart.database;whiteSpace=wrap;fillColor=#fad7ac;strokeColor=#b46504;" vertex="1" parent="1">
          <mxGeometry x="312.5" y="330.94" width="65" height="96" as="geometry" />
        </mxCell>
        <mxCell id="LMTuQz9KJbjj-_pU4_c0-38" value="" style="strokeWidth=2;html=1;shape=mxgraph.flowchart.database;whiteSpace=wrap;fillColor=#f5f5f5;strokeColor=#666666;fontColor=#333333;" vertex="1" parent="1">
          <mxGeometry x="532.5" y="323" width="65" height="96" as="geometry" />
        </mxCell>
        <mxCell id="LMTuQz9KJbjj-_pU4_c0-39" value="" style="strokeWidth=2;html=1;shape=mxgraph.flowchart.database;whiteSpace=wrap;fillColor=#e3c800;strokeColor=#B09500;fontColor=#000000;" vertex="1" parent="1">
          <mxGeometry x="752.5" y="323" width="65" height="96" as="geometry" />
        </mxCell>
        <mxCell id="LMTuQz9KJbjj-_pU4_c0-41" value="" style="shape=singleArrow;whiteSpace=wrap;html=1;fillColor=#cce5ff;strokeColor=#36393d;" vertex="1" parent="1">
          <mxGeometry x="150" y="362.94" width="120" height="25.06" as="geometry" />
        </mxCell>
        <mxCell id="LMTuQz9KJbjj-_pU4_c0-43" value="" style="shape=singleArrow;whiteSpace=wrap;html=1;fillColor=#cce5ff;strokeColor=#36393d;" vertex="1" parent="1">
          <mxGeometry x="860" y="358" width="120" height="25.06" as="geometry" />
        </mxCell>
        <mxCell id="LMTuQz9KJbjj-_pU4_c0-44" value="" style="shape=singleArrow;whiteSpace=wrap;html=1;fillColor=#cce5ff;strokeColor=#36393d;" vertex="1" parent="1">
          <mxGeometry x="410" y="362.94" width="80" height="25.06" as="geometry" />
        </mxCell>
        <mxCell id="LMTuQz9KJbjj-_pU4_c0-45" value="" style="shape=singleArrow;whiteSpace=wrap;html=1;fillColor=#cce5ff;strokeColor=#36393d;" vertex="1" parent="1">
          <mxGeometry x="640" y="358" width="80" height="25.06" as="geometry" />
        </mxCell>
        <mxCell id="LMTuQz9KJbjj-_pU4_c0-47" value="Raw Data" style="text;html=1;align=center;verticalAlign=middle;whiteSpace=wrap;rounded=0;" vertex="1" parent="1">
          <mxGeometry x="313" y="457" width="60" height="30" as="geometry" />
        </mxCell>
        <mxCell id="LMTuQz9KJbjj-_pU4_c0-48" value="Cleaned, Standardized Data" style="text;html=1;align=center;verticalAlign=middle;whiteSpace=wrap;rounded=0;" vertex="1" parent="1">
          <mxGeometry x="509" y="457" width="120" height="30" as="geometry" />
        </mxCell>
        <mxCell id="LMTuQz9KJbjj-_pU4_c0-49" value="Business Ready Data" style="text;html=1;align=center;verticalAlign=middle;whiteSpace=wrap;rounded=0;" vertex="1" parent="1">
          <mxGeometry x="729" y="450" width="120" height="30" as="geometry" />
        </mxCell>
        <mxCell id="LMTuQz9KJbjj-_pU4_c0-52" value="" style="endArrow=none;html=1;rounded=0;" edge="1" parent="1">
          <mxGeometry width="50" height="50" relative="1" as="geometry">
            <mxPoint x="141" y="559" as="sourcePoint" />
            <mxPoint x="61.5" y="559" as="targetPoint" />
          </mxGeometry>
        </mxCell>
        <mxCell id="LMTuQz9KJbjj-_pU4_c0-55" value="Object Type : Table&lt;div&gt;&lt;br&gt;&lt;div&gt;Load :&lt;/div&gt;&lt;div&gt;Batch Processing&amp;nbsp;&lt;/div&gt;&lt;/div&gt;&lt;div&gt;Full Load&lt;/div&gt;&lt;div&gt;Truncate &amp;amp; Insert&lt;/div&gt;&lt;div&gt;&lt;br&gt;&lt;/div&gt;&lt;div&gt;Transformation :&lt;/div&gt;&lt;div&gt;&lt;br&gt;&lt;/div&gt;&lt;div&gt;Data Clensing&lt;/div&gt;&lt;div&gt;Data Standadization&lt;/div&gt;&lt;div&gt;Data Normalization&lt;/div&gt;&lt;div&gt;Derived Columns&lt;/div&gt;&lt;div&gt;Data Enrichment&lt;/div&gt;&lt;div&gt;&lt;br&gt;&lt;/div&gt;&lt;div&gt;Data Model :&amp;nbsp;&lt;span style=&quot;background-color: transparent; color: light-dark(rgb(0, 0, 0), rgb(255, 255, 255));&quot;&gt;None&lt;/span&gt;&lt;/div&gt;" style="text;html=1;align=left;verticalAlign=middle;whiteSpace=wrap;rounded=0;" vertex="1" parent="1">
          <mxGeometry x="500" y="560" width="150" height="180" as="geometry" />
        </mxCell>
        <mxCell id="LMTuQz9KJbjj-_pU4_c0-56" value="" style="endArrow=none;html=1;rounded=0;" edge="1" parent="1">
          <mxGeometry width="50" height="50" relative="1" as="geometry">
            <mxPoint x="382" y="494" as="sourcePoint" />
            <mxPoint x="302.5" y="494" as="targetPoint" />
          </mxGeometry>
        </mxCell>
        <mxCell id="LMTuQz9KJbjj-_pU4_c0-62" value="" style="endArrow=none;html=1;rounded=0;" edge="1" parent="1">
          <mxGeometry width="50" height="50" relative="1" as="geometry">
            <mxPoint x="605" y="495" as="sourcePoint" />
            <mxPoint x="525.5" y="495" as="targetPoint" />
          </mxGeometry>
        </mxCell>
        <mxCell id="LMTuQz9KJbjj-_pU4_c0-64" value="" style="endArrow=none;html=1;rounded=0;" edge="1" parent="1">
          <mxGeometry width="50" height="50" relative="1" as="geometry">
            <mxPoint x="825" y="486" as="sourcePoint" />
            <mxPoint x="745.5" y="486" as="targetPoint" />
          </mxGeometry>
        </mxCell>
        <mxCell id="LMTuQz9KJbjj-_pU4_c0-66" value="Object Type : Views&lt;div&gt;&lt;br&gt;&lt;div&gt;Load :&lt;/div&gt;&lt;div&gt;No Load&lt;/div&gt;&lt;/div&gt;&lt;div&gt;&lt;br&gt;&lt;/div&gt;&lt;div&gt;Transformation :&lt;/div&gt;&lt;div&gt;&lt;br&gt;&lt;/div&gt;&lt;div&gt;Data Integration&lt;/div&gt;&lt;div&gt;Aggregation&lt;/div&gt;&lt;div&gt;Business Logics&lt;/div&gt;&lt;div&gt;&lt;br&gt;&lt;/div&gt;&lt;div&gt;Data Model :&lt;/div&gt;&lt;div&gt;Star Schema&lt;/div&gt;&lt;div&gt;Flat Table&lt;/div&gt;&lt;div&gt;Aggregated Table&lt;/div&gt;" style="text;html=1;align=left;verticalAlign=middle;whiteSpace=wrap;rounded=0;" vertex="1" parent="1">
          <mxGeometry x="720" y="530" width="150" height="220" as="geometry" />
        </mxCell>
        <mxCell id="LMTuQz9KJbjj-_pU4_c0-71" value="Object Type : Table&lt;div&gt;&lt;br&gt;&lt;div&gt;Load :&lt;/div&gt;&lt;div&gt;Batch Processing&amp;nbsp;&lt;/div&gt;&lt;/div&gt;&lt;div&gt;Full Load&lt;/div&gt;&lt;div&gt;Truncate &amp;amp; Insert&lt;/div&gt;&lt;div&gt;&lt;br&gt;&lt;/div&gt;&lt;div&gt;Transformation :&lt;/div&gt;&lt;div&gt;&lt;span style=&quot;background-color: transparent; color: light-dark(rgb(0, 0, 0), rgb(255, 255, 255));&quot;&gt;None&amp;nbsp;&lt;/span&gt;&lt;/div&gt;&lt;div&gt;&lt;br&gt;&lt;/div&gt;&lt;div&gt;Data Model :&lt;/div&gt;&lt;div&gt;&lt;span style=&quot;background-color: transparent; color: light-dark(rgb(0, 0, 0), rgb(255, 255, 255));&quot;&gt;None&lt;/span&gt;&lt;/div&gt;" style="text;html=1;align=left;verticalAlign=middle;whiteSpace=wrap;rounded=0;" vertex="1" parent="1">
          <mxGeometry x="290" y="560" width="150" height="180" as="geometry" />
        </mxCell>
        <mxCell id="LMTuQz9KJbjj-_pU4_c0-72" value="" style="image;aspect=fixed;html=1;points=[];align=center;fontSize=12;image=img/lib/azure2/analytics/Power_BI_Embedded.svg;" vertex="1" parent="1">
          <mxGeometry x="1005" y="310" width="51" height="68" as="geometry" />
        </mxCell>
        <mxCell id="LMTuQz9KJbjj-_pU4_c0-73" value="" style="image;aspect=fixed;html=1;points=[];align=center;fontSize=12;image=img/lib/azure2/ai_machine_learning/Anomaly_Detector.svg;" vertex="1" parent="1">
          <mxGeometry x="995.9" y="457" width="68" height="68" as="geometry" />
        </mxCell>
        <mxCell id="LMTuQz9KJbjj-_pU4_c0-74" value="" style="points=[];aspect=fixed;html=1;align=center;shadow=0;dashed=0;fillColor=#FF6A00;strokeColor=none;shape=mxgraph.alibaba_cloud.machine_learning;" vertex="1" parent="1">
          <mxGeometry x="1005" y="614.95" width="49.8" height="50.099999999999994" as="geometry" />
        </mxCell>
        <mxCell id="LMTuQz9KJbjj-_pU4_c0-75" value="Machine Learning&amp;nbsp;" style="text;html=1;align=center;verticalAlign=middle;whiteSpace=wrap;rounded=0;" vertex="1" parent="1">
          <mxGeometry x="980" y="660" width="104" height="30" as="geometry" />
        </mxCell>
        <mxCell id="LMTuQz9KJbjj-_pU4_c0-76" value="BI and Reporting&amp;nbsp;" style="text;html=1;align=center;verticalAlign=middle;whiteSpace=wrap;rounded=0;" vertex="1" parent="1">
          <mxGeometry x="983" y="396.94" width="104" height="30" as="geometry" />
        </mxCell>
        <mxCell id="LMTuQz9KJbjj-_pU4_c0-77" value="Ad-Hoc&amp;nbsp;&lt;br&gt;SQL Queries" style="text;html=1;align=center;verticalAlign=middle;whiteSpace=wrap;rounded=0;" vertex="1" parent="1">
          <mxGeometry x="978.5" y="530" width="104" height="30" as="geometry" />
        </mxCell>
      </root>
    </mxGraphModel>
  </diagram>
</mxfile>
